<svg enable-background="new 0 0 24 24" viewBox="0 0 24 24" xmlns="http://www.w3.org/2000/svg"><path d="m7.8 2h8.4c3.2 0 5.8 2.6 5.8 5.8v8.4c0 3.2-2.6 5.8-5.8 5.8h-8.4c-3.2 0-5.8-2.6-5.8-5.8v-8.4c0-3.2 2.6-5.8 5.8-5.8zm-.2 2c-2 0-3.6 1.6-3.6 3.6v8.8c0 2 1.6 3.6 3.6 3.6h8.8c2 0 3.6-1.6 3.6-3.6v-8.8c0-2-1.6-3.6-3.6-3.6zm9.6 1.5c.7 0 1.2.6 1.2 1.2 0 .7-.6 1.2-1.2 1.2s-1.2-.5-1.2-1.2c0-.6.6-1.2 1.2-1.2zm-5.2 1.5c2.8 0 5 2.2 5 5s-2.2 5-5 5-5-2.2-5-5 2.2-5 5-5zm0 2c-1.7 0-3 1.3-3 3s1.3 3 3 3 3-1.3 3-3-1.3-3-3-3z"/></svg>