<svg enable-background="new 0 0 24 24" viewBox="0 0 24 24" xmlns="http://www.w3.org/2000/svg"><path d="m22.9 6c-.8.3-1.6.6-2.5.7.9-.5 1.6-1.4 1.9-2.4-.8.5-1.7.8-2.7 1-.8-.8-1.9-1.3-3.1-1.3-2.4 0-4.3 1.9-4.3 4.3 0 .3 0 .7.1 1-3.6-.2-6.7-1.9-8.8-4.5-.4.6-.6 1.4-.6 2.1 0 1.5.8 2.8 1.9 3.6-.7 0-1.4-.2-1.9-.5v.1c0 2.1 1.5 3.8 3.4 4.2-.4.1-.7.2-1.1.2-.3 0-.5 0-.8-.1.5 1.7 2.1 2.9 4 3-1.5 1-3.4 1.7-5.4 1.7-.3 0-.7 0-1-.1 1.9 1.3 4.2 2 6.6 2 7.9 0 12.2-6.5 12.2-12.2 0-.2 0-.4 0-.6.8-.6 1.5-1.3 2.1-2.2z"/></svg>